<svg width="844" height="92" viewBox="0 0 844 92" fill="none" xmlns="http://www.w3.org/2000/svg">
<g clip-path="url(#clip0_693_520)">
<path d="M45.8555 6.25293C5.10234 6.25293 4.16797 51.8936 4.16797 60.9498C4.16797 70.0061 22.8555 77.3373 45.8555 77.3373C68.8555 77.3373 87.543 70.0061 87.543 60.9498C87.543 51.8936 86.6086 6.25293 45.8555 6.25293Z" fill="#FCC21B"/>
<path d="M73.2402 59.0093C67.2746 61.1656 60.734 58.1468 58.5058 52.2531C56.3496 46.3593 59.4402 39.8906 65.334 37.7343C71.2996 35.5781 77.8402 38.5968 80.0683 44.4906C82.2965 50.3843 79.2058 56.8531 73.2402 59.0093Z" fill="#FCC21B"/>
<path d="M73.0963 58.5781C67.3463 60.6624 61.0932 57.7156 59.0088 52.1093C56.9244 46.5031 59.8713 40.2499 65.6213 38.1656C71.2994 36.0812 77.6244 39.0281 79.7088 44.6343C81.7213 50.3124 78.7744 56.4937 73.0963 58.5781Z" fill="#FCC01C"/>
<path d="M72.9528 58.1471C67.4903 60.0877 61.4528 57.3565 59.4403 51.9658C57.4278 46.5752 60.2309 40.6096 65.7653 38.5971C71.2278 36.6565 77.2653 39.3877 79.2778 44.7783C81.2184 50.169 78.4153 56.2065 72.9528 58.1471Z" fill="#FCBE1C"/>
<path d="M72.8096 57.7156C67.5627 59.5844 61.8127 56.925 59.8721 51.75C58.0034 46.575 60.6627 40.8969 65.9096 39.0281C71.1565 37.1594 76.9065 39.8187 78.8471 44.9937C80.7159 50.0969 77.9846 55.8469 72.8096 57.7156Z" fill="#FBBB1D"/>
<path d="M72.5942 57.2846C67.6348 59.0814 62.1004 56.5658 60.3035 51.6064C58.5067 46.7189 61.0223 41.2564 66.0535 39.4596C71.0129 37.6627 76.5473 40.1783 78.3442 45.1377C80.141 50.0252 77.6254 55.4877 72.5942 57.2846Z" fill="#FBB91E"/>
<path d="M72.4504 56.8533C67.7067 58.5783 62.4598 56.1346 60.7348 51.4627C59.0098 46.7908 61.4536 41.6158 66.1973 39.8908C70.9411 38.1658 76.1879 40.6096 77.9129 45.2814C79.6379 49.9533 77.1942 55.1283 72.4504 56.8533Z" fill="#FBB71E"/>
<path d="M72.3069 56.4219C67.7788 58.0031 62.8194 55.775 61.1663 51.3187C59.5132 46.8625 61.8132 41.975 66.3413 40.3219C70.7976 38.7406 75.8288 40.9687 77.4819 45.425C79.1351 49.8812 76.835 54.7687 72.3069 56.4219Z" fill="#FBB51F"/>
<path d="M72.1622 55.9908C67.9216 57.5001 63.1778 55.3439 61.6684 51.1032C60.1591 46.9345 62.3153 42.2626 66.5559 40.6814C70.7966 39.172 75.5403 41.3282 77.0497 45.497C78.5591 49.8095 76.4028 54.4095 72.1622 55.9908Z" fill="#FAB220"/>
<path d="M72.0186 55.5595C67.9936 56.997 63.5374 54.9845 62.0999 51.0314C60.6624 47.0782 62.6749 42.6939 66.6999 41.2564C70.7249 39.8189 75.1811 41.8314 76.6186 45.7845C78.0561 49.7376 75.9717 54.122 72.0186 55.5595Z" fill="#FAB020"/>
<path d="M71.8026 55.1281C67.9932 56.4937 63.8964 54.5531 62.4589 50.8156C61.0932 47.0781 63.0339 42.9812 66.7714 41.6156C70.5089 40.25 74.6776 42.1906 76.1151 45.9281C77.5526 49.5937 75.612 53.7625 71.8026 55.1281Z" fill="#FAAE21"/>
<path d="M71.6587 54.6971C70.8235 55.0056 69.9357 55.1462 69.046 55.1108C68.1564 55.0753 67.2825 54.8646 66.4745 54.4906C65.6664 54.1167 64.9402 53.5869 64.3374 52.9316C63.7347 52.2763 63.2672 51.5085 62.9619 50.6721C61.6681 47.2221 63.465 43.3408 67.0587 42.0471C70.5806 40.7533 74.4619 42.5502 75.7556 46.0721C77.0494 49.5221 75.1806 53.4033 71.6587 54.6971Z" fill="#FAAC22"/>
<path d="M71.515 54.2655C68.2087 55.4155 64.615 53.7623 63.3931 50.528C62.1712 47.2936 63.8962 43.6998 67.2025 42.478C70.5087 41.328 74.1025 42.9811 75.3244 46.2155C76.4744 49.4498 74.8212 53.0436 71.515 54.2655Z" fill="#F9A922"/>
<path d="M71.372 53.8343C68.3533 54.9124 64.9751 53.403 63.8251 50.3843C62.747 47.3655 64.2564 44.0593 67.347 42.9811C70.3658 41.903 73.7439 43.4124 74.8939 46.4311C75.972 49.378 74.3908 52.6843 71.372 53.8343Z" fill="#F9A723"/>
<path d="M71.1564 53.3313C68.3533 54.3375 65.2627 52.9 64.2564 50.1688C63.2502 47.4375 64.6877 44.3469 67.4908 43.3406C70.2939 42.3344 73.3845 43.7719 74.3908 46.5031C75.4689 49.3063 73.9595 52.325 71.1564 53.3313Z" fill="#F9A524"/>
<path d="M71.0129 52.9C68.4254 53.8344 65.6223 52.5406 64.6879 50.025C63.7535 47.5094 65.0473 44.7062 67.6348 43.7719C70.2223 42.8375 73.0254 44.1312 73.9598 46.7187C74.8941 49.2344 73.6004 52.0375 71.0129 52.9Z" fill="#F9A324"/>
<path d="M70.8691 52.4688C68.5691 53.3313 65.9816 52.1095 65.1191 49.8095C64.2566 47.5095 65.4785 44.9938 67.7785 44.1313C70.0785 43.2688 72.666 44.4907 73.5285 46.7907C74.391 49.1626 73.1691 51.6782 70.8691 52.4688Z" fill="#F8A025"/>
<path d="M70.7246 52.0373C68.6402 52.756 66.3402 51.7498 65.6215 49.6654C64.9027 47.581 65.909 45.3529 67.9933 44.6342C70.0777 43.9154 72.3777 44.9217 73.0965 47.006C73.8871 49.0904 72.809 51.3185 70.7246 52.0373Z" fill="#F89E26"/>
<path d="M70.5809 51.6061C68.7121 52.253 66.6996 51.3186 66.0528 49.5217C65.4059 47.7248 66.3403 45.7123 68.1371 45.0654C69.934 44.4186 72.0184 45.3529 72.6653 47.1498C73.3121 48.9467 72.3778 50.9592 70.5809 51.6061Z" fill="#F89C26"/>
<path d="M70.3651 51.175C68.7838 51.75 66.9869 50.9594 66.4119 49.3782C65.8369 47.7969 66.6276 46.0719 68.2088 45.4969C69.7901 44.9219 71.5869 45.7125 72.1619 47.2938C72.8088 48.875 71.9463 50.6 70.3651 51.175Z" fill="#F89A27"/>
<path d="M70.221 50.7438C68.8553 51.2469 67.4178 50.5281 66.9147 49.2344C66.4116 47.8688 67.1303 46.4313 68.496 45.9281C69.8616 45.425 71.2991 46.1438 71.8022 47.4375C72.3053 48.8031 71.5866 50.3125 70.221 50.7438Z" fill="#F79728"/>
<path d="M70.0776 50.3126C68.9994 50.7439 67.7776 50.1689 67.3463 49.0907C66.9151 48.0126 67.4901 46.7907 68.6401 46.3595C69.7182 45.9282 70.9401 46.5032 71.3713 47.6532C71.7307 48.7314 71.1557 49.9532 70.0776 50.3126Z" fill="#F79528"/>
<path d="M69.9344 49.8815C69.0719 50.169 68.1375 49.7377 67.7782 48.8752C67.4907 48.0127 67.9219 47.0783 68.7844 46.7908C69.6469 46.5033 70.5813 46.9346 70.9406 47.7971C71.2281 48.6596 70.7969 49.594 69.9344 49.8815Z" fill="#F79329"/>
<path d="M25.4433 58.5782C19.4777 60.7344 12.9371 57.7157 10.709 51.8219C8.55272 45.9282 11.6433 39.4594 17.5371 37.3032C23.5027 35.1469 30.0433 38.1657 32.2715 44.0594C34.4996 49.9532 31.409 56.4219 25.4433 58.5782Z" fill="#FCC21B"/>
<path d="M25.3002 58.147C19.5502 60.2314 13.297 57.2845 11.2127 51.6783C9.12829 46.072 12.0752 39.8189 17.7533 37.7345C23.4314 35.722 29.7564 38.597 31.8408 44.2033C33.9252 49.8095 30.9783 56.0626 25.3002 58.147Z" fill="#FCC01C"/>
<path d="M25.1559 57.7157C19.6934 59.6563 13.6559 56.9251 11.6434 51.5344C9.63091 46.1438 12.434 40.1782 17.9684 38.1657C23.4309 36.2251 29.4684 38.9563 31.4809 44.4188C33.4215 49.7376 30.6184 55.7032 25.1559 57.7157Z" fill="#FCBE1C"/>
<path d="M25.0127 57.2845C19.7659 59.1532 14.0159 56.4938 12.0752 51.3188C10.2065 46.1438 12.8659 40.4657 18.1127 38.597C23.3596 36.7282 29.1096 39.3876 31.0502 44.5626C32.919 49.6657 30.1877 55.4157 25.0127 57.2845Z" fill="#FBBB1D"/>
<path d="M24.7973 56.8529C19.8379 58.6498 14.3035 56.1342 12.5067 51.1748C10.7098 46.2873 13.2254 40.8248 18.2567 39.0279C23.216 37.231 28.7504 39.7467 30.5473 44.706C32.3442 49.5935 29.8285 55.056 24.7973 56.8529Z" fill="#FBB91E"/>
<path d="M24.6536 56.4217C19.9098 58.1467 14.6629 55.7029 12.9379 51.0311C11.2129 46.3592 13.6567 41.1842 18.4004 39.4592C23.1442 37.7342 28.3911 40.1779 30.1161 44.8498C31.8411 49.5217 29.3973 54.6967 24.6536 56.4217Z" fill="#FBB71E"/>
<path d="M24.51 55.9907C19.9819 57.572 15.0225 55.3438 13.3694 50.8876C11.7163 46.4313 14.0163 41.5438 18.5444 39.8907C23.0007 38.3095 28.0319 40.5376 29.685 44.9938C31.3382 49.4501 28.9663 54.3376 24.51 55.9907Z" fill="#FBB51F"/>
<path d="M24.3653 55.5595C20.1247 57.0689 15.3809 54.9126 13.8716 50.7439C12.3622 46.5751 14.5184 41.9032 18.7591 40.322C22.9997 38.8126 27.6716 40.9689 29.2528 45.1376C30.7622 49.3782 28.6059 53.9783 24.3653 55.5595Z" fill="#FAB220"/>
<path d="M24.2217 55.1281C20.1967 56.5656 15.7405 54.5531 14.303 50.6C12.8655 46.6468 14.878 42.2625 18.903 40.825C22.928 39.3875 27.3842 41.4 28.8217 45.425C30.2592 49.3062 28.1749 53.6906 24.2217 55.1281Z" fill="#FAB020"/>
<path d="M24.0057 54.697C20.1964 56.0626 16.0995 54.122 14.662 50.3845C13.2964 46.647 15.237 42.5501 18.9745 41.1845C22.712 39.8188 26.8807 41.7595 28.3182 45.497C29.7557 49.1626 27.8151 53.3313 24.0057 54.697Z" fill="#FAAE21"/>
<path d="M23.8619 54.2655C23.0267 54.574 22.1388 54.7145 21.2491 54.6791C20.3595 54.6437 19.4856 54.4329 18.6776 54.059C17.8696 53.685 17.1433 53.1552 16.5406 52.4999C15.9378 51.8447 15.4703 51.0768 15.165 50.2405C13.8712 46.7905 15.6681 42.9092 19.2619 41.6155C22.7837 40.3217 26.665 42.1186 27.9587 45.6405C29.1806 49.0905 27.3837 52.9717 23.8619 54.2655Z" fill="#FAAC22"/>
<path d="M23.7181 53.8343C20.4119 54.9843 16.8181 53.3312 15.5962 50.0968C14.3744 46.8624 16.0994 43.2687 19.4056 42.0468C22.7119 40.8968 26.3056 42.5499 27.5275 45.7843C28.6775 49.0187 27.0244 52.6124 23.7181 53.8343Z" fill="#F9A922"/>
<path d="M23.5751 53.3313C20.5564 54.4095 17.1783 52.9001 16.0283 49.8813C14.9501 46.8626 16.4595 43.5563 19.5501 42.4782C22.5689 41.4001 25.947 42.9095 27.097 45.9282C28.1751 48.947 26.5939 52.2532 23.5751 53.3313Z" fill="#F9A723"/>
<path d="M23.3595 52.9001C20.5564 53.9064 17.4658 52.4689 16.4595 49.7376C15.4533 47.0064 16.8908 43.9157 19.6939 42.9095C22.497 41.9032 25.5877 43.3407 26.5939 46.072C27.6002 48.8751 26.1627 51.8939 23.3595 52.9001Z" fill="#F9A524"/>
<path d="M23.216 52.4686C20.6285 53.403 17.8254 52.1093 16.891 49.5936C15.9566 47.078 17.2504 44.2749 19.8379 43.3405C22.4254 42.4061 25.2285 43.6999 26.1629 46.2155C27.0973 48.803 25.8035 51.6061 23.216 52.4686Z" fill="#F9A324"/>
<path d="M23.0722 52.0377C20.7722 52.9002 18.1847 51.6783 17.3222 49.3783C16.4597 47.0783 17.6816 44.5627 19.9816 43.7002C22.2816 42.8377 24.8691 44.0596 25.7316 46.3596C26.5941 48.7314 25.3722 51.2471 23.0722 52.0377Z" fill="#F8A025"/>
<path d="M22.9277 51.6061C20.8433 52.3249 18.5433 51.3186 17.8246 49.2342C17.1058 47.2217 18.1121 44.9217 20.1965 44.203C22.2808 43.4842 24.5808 44.4905 25.2996 46.5749C26.0183 48.5874 25.0121 50.8874 22.9277 51.6061Z" fill="#F89E26"/>
<path d="M22.784 51.1749C20.9153 51.8218 18.9028 50.8874 18.2559 49.0906C17.609 47.2937 18.5434 45.2812 20.3403 44.6343C22.1371 43.9874 24.2215 44.9218 24.8684 46.7187C25.5153 48.5155 24.5809 50.528 22.784 51.1749Z" fill="#F89C26"/>
<path d="M22.5682 50.7439C20.9869 51.3189 19.1901 50.5283 18.6151 48.947C18.0401 47.3658 18.8307 45.6408 20.4119 45.0658C21.9932 44.4908 23.7901 45.2814 24.3651 46.8626C25.0119 48.4439 24.1494 50.1689 22.5682 50.7439Z" fill="#F89A27"/>
<path d="M22.4241 50.3126C21.0585 50.8157 19.621 50.097 19.1178 48.8032C18.6147 47.5095 19.3335 46.0001 20.6991 45.497C22.0647 44.9939 23.5022 45.7126 24.0053 47.0064C24.4366 48.372 23.7897 49.8814 22.4241 50.3126Z" fill="#F79728"/>
<path d="M22.2807 49.8813C21.2026 50.3126 19.9807 49.7376 19.5494 48.6594C19.1182 47.5813 19.6932 46.3594 20.8432 45.9282C21.9213 45.4969 23.1432 46.0719 23.5744 47.1501C23.9338 48.3001 23.3588 49.5219 22.2807 49.8813Z" fill="#F79528"/>
<path d="M22.1375 49.4498C21.275 49.7373 20.3407 49.3061 19.9813 48.4436C19.6938 47.5811 20.125 46.6467 20.9875 46.3592C21.85 46.0717 22.7844 46.503 23.1438 47.3655C23.4313 48.228 23 49.1623 22.1375 49.4498Z" fill="#F79329"/>
<path d="M23.7913 41.6158C23.2882 42.4783 22.2101 42.6939 21.3476 42.1908C20.4851 41.6877 20.1976 40.6096 20.7007 39.7471C20.8444 39.5314 23.7194 33.9971 30.0444 33.9971C36.4413 33.9971 39.1726 39.3877 39.3882 39.7471C39.8913 40.6096 39.6038 41.6877 38.7413 42.1908C38.4538 42.3346 38.1663 42.4064 37.8069 42.4064C37.2319 42.4064 36.5851 42.1189 36.2976 41.5439C36.2257 41.4002 34.2851 37.5189 29.9726 37.5189C25.8038 37.5908 23.9351 41.4721 23.7913 41.6158ZM70.7257 42.1908C70.4382 42.3346 70.1507 42.4064 69.8632 42.4064C69.2163 42.4064 68.6413 42.1189 68.3538 41.5439C68.2819 41.4002 66.3413 37.5189 62.0288 37.5189C57.6444 37.5189 55.7038 41.4721 55.7038 41.5439C55.2007 42.4064 54.1226 42.6939 53.2601 42.1908C52.3976 41.6877 52.1101 40.6096 52.6132 39.7471C52.9007 39.2439 55.6319 33.9971 61.9569 33.9971C68.3538 33.9971 71.0132 39.2439 71.3007 39.7471C71.8757 40.6096 71.5882 41.6877 70.7257 42.1908ZM46.0726 60.5908C34.5007 60.5908 29.3976 53.1877 29.1819 52.9002C28.4632 51.9658 28.6788 50.6721 29.6132 49.9533C30.5476 49.2346 31.8413 49.4502 32.5601 50.3846C32.7757 50.6721 36.6569 56.4221 46.2163 56.4221C54.9851 56.4221 59.1538 50.8877 59.2976 50.6002C59.9444 49.6658 61.2382 49.3783 62.2444 50.0252C63.1788 50.6721 63.4663 51.9658 62.8194 52.9002C62.6038 53.2596 57.5007 60.5908 46.0726 60.5908Z" fill="#2F2F2F"/>
<path d="M22.0658 86.0345C19.5502 86.0345 17.2502 85.3157 15.2377 83.8782C12.9377 82.297 11.2127 81.5782 11.1408 81.5782C8.19391 80.3563 4.52829 78.272 4.52829 78.272C3.01891 77.4095 1.79704 75.6126 2.58766 73.672C2.94704 72.8095 3.52204 72.1626 4.31266 71.8751C3.66579 71.5157 3.37829 71.3001 3.30641 71.2282C2.08454 70.2938 0.790788 68.1376 1.94079 66.3407C2.58766 65.4063 3.45016 64.7595 4.52829 64.5438C3.52204 63.322 3.01891 61.5251 3.95329 60.0157C4.60016 59.0095 5.82204 58.3626 6.97204 58.3626C7.83454 58.3626 8.69704 58.722 9.41579 59.297L9.48766 59.3688C9.12829 58.2188 9.34391 56.997 10.3502 55.9907C11.1408 55.272 12.0033 54.9126 12.9377 54.9126C13.5845 54.9126 14.6627 55.1282 15.6689 56.2063C16.6752 57.2845 21.347 62.3157 21.9939 63.1063C22.4252 63.5376 23.5033 64.7595 23.647 64.9032L23.7189 64.9751C23.5033 64.6157 23.3595 64.2563 23.2877 63.7532C22.9283 62.4595 23.2158 61.0938 24.0064 60.0876C24.6533 59.2251 25.5877 58.7938 26.6658 58.7938C29.1095 58.7938 30.0439 61.0938 30.4752 62.2438C30.8345 63.2501 31.4095 63.897 31.9845 64.6876C32.6314 65.5501 33.3502 66.5563 34.0689 68.0657C35.0033 70.222 35.2189 73.3126 34.6439 75.972C33.3502 81.6501 29.8283 83.7345 26.8814 84.9563C25.7314 85.6032 24.0783 86.0345 22.0658 86.0345Z" fill="#FAC036"/>
<path d="M12.9372 56.4937C13.4403 56.4937 14.0153 56.7093 14.5903 57.3562C15.5966 58.4343 20.1966 63.4655 20.9153 64.2562C21.3466 64.7593 22.5685 66.053 22.5685 66.1249C23.2153 66.7718 23.8622 67.4905 24.7247 68.353C24.7247 68.353 25.3716 68.9999 26.0185 68.9999C26.4497 68.9999 26.881 68.7124 27.2403 67.8499C26.1622 65.8374 25.0841 65.2624 24.6528 63.6812C24.2216 62.028 25.2278 60.5187 26.5935 60.5187C27.8872 60.5187 28.4622 61.5249 29.0372 63.0343C29.9716 65.3343 31.4091 66.1968 32.631 68.928C33.4935 70.7968 33.6372 73.6718 33.1341 75.9718C32.056 80.7155 29.3966 82.6562 26.2341 83.9499C25.156 84.3812 23.7185 84.7405 22.0653 84.7405C20.1966 84.7405 18.0403 84.2374 16.0278 82.8718C13.5841 81.1468 11.7153 80.428 11.7153 80.428C9.12784 79.3499 5.89346 77.553 5.24658 77.1937C4.45596 76.7624 3.37783 75.6124 3.88096 74.3905C4.16846 73.6718 4.81533 73.1687 5.60596 73.1687C5.96534 73.1687 6.39658 73.2405 6.82783 73.528C7.61846 73.9593 9.41534 75.0374 12.5778 76.6187C12.5778 76.6187 13.081 76.4749 13.1528 76.1874C13.2247 75.9718 13.2247 75.6843 12.8653 75.253C10.9966 74.0312 4.52783 70.4374 4.09658 70.078C3.37783 69.5749 2.44346 68.1374 3.09033 67.1312C3.52158 66.4843 4.24033 65.9812 5.03096 65.9812C5.46221 65.9812 5.82158 66.1249 6.25283 66.4124C7.18721 67.0593 11.356 69.7905 14.231 71.6593C14.231 71.6593 15.5247 71.4437 15.0216 70.3655C12.5778 68.7843 6.25283 64.4718 5.74971 63.8968C5.10283 63.2499 4.38408 61.9562 5.10283 60.878C5.53408 60.303 6.18096 59.8718 6.97158 59.8718C7.47471 59.8718 7.97783 60.0155 8.48096 60.4468C9.48721 61.3093 15.5966 66.2687 17.3935 67.778H17.681C18.0403 67.778 18.4716 67.6343 18.3997 66.8437C18.3997 66.8437 12.0747 60.878 11.6435 60.303C11.0685 59.5843 10.3497 58.1468 11.4278 57.1405C11.7872 56.7812 12.3622 56.4937 12.9372 56.4937ZM12.9372 53.6187C11.6435 53.6187 10.4216 54.1218 9.41534 55.128C8.76846 55.703 8.33721 56.4218 8.12158 57.2124C7.76221 57.1405 7.40283 57.0687 6.97158 57.0687C5.31846 57.0687 3.66533 57.9312 2.73096 59.2968C1.72471 60.7343 1.79658 62.4593 2.37158 63.8968C1.72471 64.328 1.14971 64.903 0.646584 65.6218C-0.719041 67.778 0.143459 70.4374 1.86846 72.0187C1.58096 72.378 1.36533 72.7374 1.22158 73.2405C0.143459 75.8999 1.79658 78.4155 3.80908 79.5655C3.88096 79.5655 7.61846 81.7937 10.6372 83.0155C10.6372 83.0155 12.2903 83.7343 14.4466 85.1718C16.7466 86.753 19.406 87.5437 22.1372 87.5437C24.4372 87.5437 26.2341 86.9687 27.3841 86.5374C30.6185 85.2437 34.5716 82.8718 36.0091 76.5468C36.656 73.5999 36.4403 70.1499 35.3622 67.7062C34.6435 66.053 33.781 64.9749 33.1341 64.0405C32.5591 63.2499 32.1278 62.6749 31.8403 61.8843C31.3372 60.7343 30.1153 57.5718 26.7372 57.5718H26.6653C25.2278 57.5718 23.7903 58.2187 22.9278 59.4405C22.5685 59.9437 22.281 60.5187 22.0653 61.0937C20.4122 59.2968 17.6091 56.2062 16.8185 55.3437C15.3091 53.9062 13.8716 53.6187 12.9372 53.6187Z" fill="#2F2F2F"/>
<path d="M69.9352 86.0344C67.8508 86.0344 66.2696 85.5313 65.1914 85.1C62.2446 83.8781 58.7227 81.7938 57.4289 76.1156C56.7821 73.4563 57.0696 70.3656 58.0039 68.2094C58.6508 66.7 59.4414 65.6937 60.0883 64.8312C60.6633 64.0406 61.1664 63.3219 61.5977 62.3875C62.0289 61.3094 62.9633 59.0094 65.4071 58.9375C66.4852 58.9375 67.4196 59.4406 68.0664 60.2313C68.8571 61.2375 69.0727 62.6031 68.7852 63.8969C68.6414 64.3281 68.4977 64.7594 68.3539 65.1187L68.4977 64.975C68.5696 64.8313 69.7196 63.6813 70.0789 63.1781C70.7258 62.3875 75.3977 57.3563 76.4039 56.2781C77.4102 55.2 78.4164 54.9844 79.1352 54.9844C80.0696 54.9844 80.9321 55.3438 81.7227 56.0625C82.7289 56.9969 82.9446 58.2187 82.5852 59.4406C82.6571 59.4406 82.6571 59.3687 82.6571 59.3687C83.3758 58.7219 84.1664 58.4344 85.1008 58.4344C86.3227 58.4344 87.4727 59.0813 88.1196 60.0156C89.1258 61.4531 88.6227 63.3219 87.5446 64.5438C88.5508 64.6875 89.4852 65.3344 90.1321 66.3406C91.2821 68.1375 90.0602 70.2937 88.7664 71.2281C88.6227 71.3 88.3352 71.5156 87.7602 71.875C88.5508 72.2344 89.1258 72.8812 89.4852 73.6719C90.2758 75.5406 88.9821 77.3375 87.5446 78.2719C87.4727 78.2719 83.8789 80.4281 80.9321 81.5781C80.9321 81.5781 79.1352 82.2969 76.8352 83.8781C74.7508 85.3156 72.4508 86.0344 69.9352 86.0344Z" fill="#FAC036"/>
<path d="M79.0631 56.4937C79.6381 56.4937 80.2131 56.7812 80.6443 57.2124C81.7225 58.2187 81.0037 59.6562 80.4287 60.3749C79.9975 60.9499 73.6725 66.9155 73.6725 66.9155C73.6006 67.7062 74.0318 67.8499 74.3912 67.8499H74.6787C76.4756 66.2687 82.585 61.3812 83.5912 60.5187C84.0225 60.0874 84.5975 59.9437 85.1006 59.9437C85.8193 59.9437 86.5381 60.303 86.9693 60.9499C87.6881 62.028 86.8975 63.3937 86.3225 63.9687C85.7475 64.5437 79.4225 68.8562 77.0506 70.4374C76.5475 71.5155 77.8412 71.7312 77.8412 71.7312C80.7162 69.8624 84.885 67.0593 85.8193 66.4843C86.2506 66.1968 86.6818 66.053 87.0412 66.053C87.8318 66.053 88.5506 66.5562 88.9818 67.203C89.6287 68.2812 88.6943 69.6468 87.9756 70.1499C87.5443 70.5093 81.0756 74.103 79.2068 75.1093C78.8475 75.5405 78.7756 75.828 78.9193 76.0437C79.0631 76.403 79.4943 76.4749 79.4943 76.4749C82.6568 74.8937 84.4537 73.8155 85.2443 73.3843C85.6756 73.1687 86.1068 73.0249 86.4662 73.0249C87.2568 73.0249 87.9037 73.4562 88.1912 74.2468C88.6943 75.4687 87.6162 76.6187 86.8256 77.0499C86.2506 77.4093 82.9443 79.2062 80.3568 80.2843C80.3568 80.2843 78.4881 81.0749 76.0443 82.728C74.0318 84.1655 71.8756 84.5968 70.0068 84.5968C68.3537 84.5968 66.9162 84.2374 65.8381 83.8062C62.6756 82.5124 60.0162 80.5718 58.9381 75.828C58.435 73.528 58.5787 70.7249 59.4412 68.7843C60.5912 66.1249 62.1006 65.1905 63.035 62.8905C63.61 61.3812 64.2568 60.3749 65.4787 60.3749C66.8443 60.3749 67.8506 61.8843 67.4193 63.5374C67.06 65.1187 65.9818 65.6937 64.8318 67.7062C65.1193 68.5687 65.6225 68.8562 66.0537 68.8562C66.7006 68.8562 67.3475 68.2093 67.3475 68.2093C68.1381 67.4187 68.8568 66.628 69.5037 65.9812C69.5756 65.9093 70.7256 64.6155 71.1568 64.1124C71.8756 63.3218 76.4037 58.2905 77.4818 57.2124C77.985 56.7093 78.56 56.4937 79.0631 56.4937ZM79.0631 53.6187C78.1287 53.6187 76.6912 53.9062 75.3256 55.3437C74.535 56.2062 71.66 59.2968 70.0787 61.0937C69.8631 60.5187 69.5756 59.9437 69.2162 59.4405C68.2818 58.2187 66.9162 57.5718 65.4068 57.5718H65.335C61.9568 57.6437 60.735 60.7343 60.2318 61.8843C59.9443 62.6749 59.5131 63.2499 58.9381 64.0405C58.2912 64.903 57.4287 66.053 56.71 67.7062C55.6318 70.1499 55.4162 73.5999 56.0631 76.5468C57.5006 82.8718 61.4537 85.2437 64.6881 86.5374C65.8381 86.9687 67.635 87.5437 69.935 87.5437C72.6662 87.5437 75.3256 86.6812 77.6256 85.1718C79.7818 83.6624 81.435 83.0155 81.435 83.0155C84.4537 81.7937 88.1912 79.6374 88.2631 79.5655C90.2756 78.4155 91.9287 75.8999 90.8506 73.2405C90.7068 72.8093 90.4193 72.378 90.2037 72.0187C91.9287 70.4374 92.7912 67.778 91.4256 65.6218C90.9943 64.903 90.4193 64.328 89.7006 63.8968C90.2756 62.4593 90.3475 60.7343 89.3412 59.2968C88.4068 57.9312 86.7537 57.0687 85.1006 57.0687C84.7412 57.0687 84.31 57.1405 83.9506 57.2124C83.735 56.4218 83.3037 55.703 82.6568 55.128C81.5787 54.1218 80.3568 53.6187 79.0631 53.6187Z" fill="#2F2F2F"/>
</g>
<path d="M186.023 65.0614H154.988V78.5976C154.988 79.3903 154.317 80 153.524 80H148.402C147.61 80 147 79.3903 147 78.5976V44.2694C147 43.4767 147.61 42.806 148.402 42.806H153.524C154.317 42.806 154.988 43.4767 154.988 44.2694V57.0739H186.023V44.2694C186.023 43.4767 186.694 42.806 187.487 42.806H192.608C193.401 42.806 194.011 43.4767 194.011 44.2694V78.5976C194.011 79.3903 193.401 80 192.608 80H187.487C186.694 80 186.023 79.3903 186.023 78.5976V65.0614ZM246.033 80H224.57C224.509 80 224.509 80 224.509 80H224.143C216.095 79.6951 209.631 72.927 209.631 64.8785V44.2694C209.631 43.4767 210.241 42.806 211.034 42.806H216.156C216.948 42.806 217.619 43.4767 217.619 44.2694V65.1224C217.619 68.9028 220.729 72.0124 224.509 72.0124H246.338C250.118 72.0124 253.228 68.9028 253.228 65.1224V44.2694C253.228 43.4767 253.837 42.806 254.63 42.806H259.813C260.606 42.806 261.215 43.4767 261.215 44.2694V64.8785C261.215 73.1709 254.386 80 246.033 80ZM277.397 57.8665C277.823 54.8788 278.738 52.013 280.323 49.4521C282.579 45.7937 286.238 42.806 290.75 42.806H324.773C325.566 42.806 326.176 43.4767 326.176 44.2694V49.3912C326.176 50.1838 325.566 50.7936 324.773 50.7936L290.262 50.8545C286.665 51.7691 285.14 58.2933 285.14 61.403C285.14 63.2322 285.567 65.3663 286.177 67.0126C286.848 68.9637 288.311 72.0124 290.75 72.0124H300.079H318.188V65.4273H300.262C299.469 65.4273 298.859 64.7566 298.859 63.9639V58.8421C298.859 58.0494 299.469 57.4397 300.262 57.4397H324.773C325.566 57.4397 326.176 58.0494 326.176 58.8421V78.5976C326.176 78.9634 326.054 79.3293 325.749 79.5732C325.505 79.8781 325.139 80 324.712 80L288.555 79.7561C288.433 79.7561 288.311 79.7561 288.189 79.6951C287.335 79.5122 286.543 79.1464 285.75 78.7805C282.397 77.0123 280.14 73.7197 278.799 70.2442C277.275 66.3419 276.848 61.9518 277.397 57.8665ZM342.35 57.8665C342.777 54.8788 343.692 52.013 345.277 49.4521C347.533 45.7937 351.192 42.806 355.704 42.806H389.727C390.52 42.806 391.129 43.4767 391.129 44.2694V49.3912C391.129 50.1838 390.52 50.7936 389.727 50.7936L355.216 50.8545C351.618 51.7691 350.094 58.2933 350.094 61.403C350.094 63.2322 350.521 65.3663 351.131 67.0126C351.801 68.9637 353.265 72.0124 355.704 72.0124H365.033H383.142V65.4273H365.216C364.423 65.4273 363.813 64.7566 363.813 63.9639V58.8421C363.813 58.0494 364.423 57.4397 365.216 57.4397H389.727C390.52 57.4397 391.129 58.0494 391.129 58.8421V78.5976C391.129 78.9634 391.007 79.3293 390.703 79.5732C390.459 79.8781 390.093 80 389.666 80L353.509 79.7561C353.387 79.7561 353.265 79.7561 353.143 79.6951C352.289 79.5122 351.496 79.1464 350.704 78.7805C347.35 77.0123 345.094 73.7197 343.753 70.2442C342.228 66.3419 341.802 61.9518 342.35 57.8665ZM406.755 44.2694C406.755 43.4767 407.365 42.806 408.158 42.806H413.28C414.072 42.806 414.743 43.4767 414.743 44.2694V78.5976C414.743 79.3903 414.072 80 413.28 80H408.158C407.365 80 406.755 79.3903 406.755 78.5976V44.2694ZM438.254 52.9886V77.9269C438.254 78.7196 437.583 79.3903 436.79 79.3903H431.668C430.876 79.3903 430.266 78.7196 430.266 77.9269V44.2694C430.266 43.4767 430.876 42.806 431.668 42.806H438.132C438.436 42.806 438.741 42.928 439.046 43.1718L469.289 69.1467V44.2694C469.289 43.4767 469.96 42.806 470.753 42.806H475.874C476.667 42.806 477.277 43.4767 477.277 44.2694V77.9269C477.277 78.7196 476.667 79.3903 475.874 79.3903H469.411C469.045 79.3903 468.74 79.2683 468.497 79.0244L438.254 52.9886ZM493.446 57.8665C493.873 54.8788 494.788 52.013 496.373 49.4521C498.629 45.7937 502.287 42.806 506.799 42.806H540.823C541.615 42.806 542.225 43.4767 542.225 44.2694V49.3912C542.225 50.1838 541.615 50.7936 540.823 50.7936L506.312 50.8545C502.714 51.7691 501.19 58.2933 501.19 61.403C501.19 63.2322 501.617 65.3663 502.226 67.0126C502.897 68.9637 504.361 72.0124 506.799 72.0124H516.128H534.238V65.4273H516.311C515.519 65.4273 514.909 64.7566 514.909 63.9639V58.8421C514.909 58.0494 515.519 57.4397 516.311 57.4397H540.823C541.615 57.4397 542.225 58.0494 542.225 58.8421V78.5976C542.225 78.9634 542.103 79.3293 541.798 79.5732C541.555 79.8781 541.189 80 540.762 80L504.604 79.7561C504.482 79.7561 504.361 79.7561 504.239 79.6951C503.385 79.5122 502.592 79.1464 501.8 78.7805C498.446 77.0123 496.19 73.7197 494.849 70.2442C493.324 66.3419 492.897 61.9518 493.446 57.8665ZM598.868 44.2694C598.868 43.4767 599.478 42.806 600.27 42.806H642.647C643.44 42.806 644.05 43.4767 644.05 44.2694V49.3912C644.05 50.1838 643.44 50.7936 642.647 50.7936H606.856V57.4397H638.623C639.416 57.4397 640.086 58.0494 640.086 58.8421V63.9639C640.086 64.7566 639.416 65.4273 638.623 65.4273H606.856V78.5976C606.856 79.3903 606.185 80 605.392 80H600.27C599.478 80 598.868 79.3903 598.868 78.5976V44.2694ZM696.238 65.0614L686.665 49.3302L677.092 65.0614H696.238ZM713.432 77.8659C713.676 78.2927 713.676 78.8415 713.432 79.2683C713.189 79.7561 712.701 80 712.152 80H706.177C705.628 80 705.201 79.7561 704.957 79.3293L701.116 73.049H672.214L668.373 79.3293C668.129 79.7561 667.641 80 667.153 80H661.117C660.629 80 660.141 79.7561 659.897 79.2683C659.654 78.8415 659.654 78.2927 659.897 77.8659L680.872 43.4767C681.116 43.0499 681.543 42.806 682.092 42.806H691.238C691.726 42.806 692.214 43.0499 692.457 43.4767L713.432 77.8659ZM731.262 70.2442C729.738 66.4029 729.311 62.0127 729.86 57.9275C730.287 54.9398 731.201 52.013 732.787 49.4521C735.043 45.7937 738.701 42.806 743.213 42.806H775.225C776.017 42.806 776.627 43.4767 776.627 44.2694V49.3912C776.627 50.1838 776.017 50.7936 775.225 50.7936L742.726 50.8545C739.128 51.7691 737.604 58.2933 737.604 61.403C737.604 63.2322 738.031 65.3663 738.64 67.0126C739.311 68.9637 740.774 72.0124 743.213 72.0124H752.542H775.225C776.017 72.0124 776.627 72.6831 776.627 73.4758V78.5976C776.627 78.9634 776.505 79.3293 776.2 79.5732C775.956 79.8781 775.59 80 775.225 80L741.018 79.7561C740.896 79.7561 740.774 79.7561 740.652 79.6951C739.799 79.5122 739.006 79.1464 738.213 78.7805C734.86 77.0123 732.604 73.7197 731.262 70.2442ZM792.241 44.2694C792.241 43.4767 792.85 42.806 793.643 42.806H836.02C836.812 42.806 837.422 43.4767 837.422 44.2694V49.3912C837.422 50.1838 836.812 50.7936 836.02 50.7936H800.228V57.4397H831.995C832.788 57.4397 833.459 58.0494 833.459 58.8421V63.9639C833.459 64.7566 832.788 65.4273 831.995 65.4273H800.228V72.0124H836.02C836.812 72.0124 837.422 72.6831 837.422 73.4758V78.5976C837.422 79.3903 836.812 80 836.02 80H793.643C792.85 80 792.241 79.3903 792.241 78.5976V44.2694Z" fill="white"/>
<defs>
<clipPath id="clip0_693_520">
<rect width="92" height="92" fill="white"/>
</clipPath>
</defs>
</svg>
