<svg width="475" height="133" viewBox="0 0 475 133" fill="none" xmlns="http://www.w3.org/2000/svg">
<g clip-path="url(#clip0_693_517)">
<path d="M32.448 0.0011405H61.2466L31.3508 88.5785C31.0437 89.4887 30.4587 90.2797 29.6784 90.84C28.8981 91.4003 27.9616 91.7018 27.001 91.7019H4.58834C3.86057 91.7019 3.14327 91.5286 2.49575 91.1964C1.84824 90.8641 1.28911 90.3825 0.864617 89.7914C0.44012 89.2002 0.162448 88.5165 0.054563 87.7968C-0.0533223 87.0771 0.0116789 86.342 0.244191 85.6524L28.097 3.12458C28.4041 2.21401 28.9892 1.42274 29.7697 0.862205C30.5503 0.301667 31.487 0.000107919 32.448 0V0.0011405Z" fill="url(#paint0_linear_693_517)"/>
<path d="M74.297 59.4131H28.6292C28.2047 59.4127 27.7899 59.5402 27.4388 59.7789C27.0878 60.0176 26.8167 60.3565 26.661 60.7514C26.5053 61.1464 26.4721 61.5791 26.5658 61.9931C26.6594 62.4072 26.8756 62.7835 27.1861 63.0729L56.5311 90.4627C57.3856 91.2594 58.5105 91.7023 59.6788 91.702H85.5377L74.297 59.4131Z" fill="#0078D4"/>
<path d="M32.4483 0.00101005C31.4768 -0.00271446 30.5296 0.304289 29.7451 0.877175C28.9605 1.45006 28.3797 2.25881 28.0874 3.18527L0.278695 85.577C0.0303904 86.2692 -0.0475513 87.011 0.0514633 87.7397C0.150478 88.4684 0.423536 89.1625 0.84754 89.7633C1.27154 90.3642 1.83402 90.854 2.48739 91.1915C3.14076 91.529 3.86579 91.7042 4.60117 91.7022H27.5917C28.448 91.5492 29.2483 91.1717 29.9109 90.6082C30.5736 90.0447 31.0748 89.3153 31.3633 88.4947L36.9091 72.1511L56.7177 90.6271C57.5478 91.3138 58.5893 91.6935 59.6666 91.7022H85.4289L74.13 59.4129L41.1913 59.4205L61.3511 0.00101005H32.4483Z" fill="url(#paint1_linear_693_517)"/>
<path d="M69.231 3.11985C68.9242 2.21078 68.34 1.42084 67.5606 0.861323C66.7812 0.301803 65.8459 0.000891926 64.8865 0.00097658H32.791C34.7584 0.00097658 36.5064 1.2559 37.1355 3.11985L64.9891 85.6511C65.222 86.3409 65.2872 87.0762 65.1795 87.7963C65.0718 88.5163 64.7942 89.2004 64.3696 89.7918C63.945 90.3833 63.3857 90.8651 62.738 91.1975C62.0902 91.5299 61.3726 91.7033 60.6446 91.7033H92.7416C93.4695 91.7031 94.187 91.5296 94.8346 91.1971C95.4822 90.8646 96.0413 90.3828 96.4658 89.7913C96.8902 89.1999 97.1677 88.5159 97.2754 87.796C97.3831 87.076 97.3178 86.3408 97.0849 85.6511L69.2306 3.11985H69.231Z" fill="url(#paint2_linear_693_517)"/>
</g>
<path d="M164.584 77.0614L155.011 61.3302L145.438 77.0614H164.584ZM181.779 89.8659C182.023 90.2927 182.023 90.8415 181.779 91.2683C181.535 91.7561 181.047 92 180.498 92H174.523C173.974 92 173.547 91.7561 173.304 91.3293L169.462 85.049H140.561L136.719 91.3293C136.475 91.7561 135.988 92 135.5 92H129.463C128.976 92 128.488 91.7561 128.244 91.2683C128 90.8415 128 90.2927 128.244 89.8659L149.219 55.4767C149.463 55.0499 149.89 54.806 150.438 54.806H159.584C160.072 54.806 160.56 55.0499 160.804 55.4767L181.779 89.8659ZM197.658 84.6222C197.658 84.1344 197.841 83.7076 198.267 83.4027L229.669 62.7936H199.06C198.267 62.7936 197.658 62.1838 197.658 61.3912V56.2694C197.658 55.4767 198.267 54.806 199.06 54.806H243.266C244.059 54.806 244.669 55.4767 244.669 56.2694V62.2448C244.669 62.7326 244.425 63.1594 244.059 63.4033L212.657 84.0124H243.266C244.059 84.0124 244.669 84.6831 244.669 85.4758V90.5976C244.669 91.3903 244.059 92 243.266 92H199.06C198.267 92 197.658 91.3903 197.658 90.5976V84.6222ZM296.691 92H275.228C275.167 92 275.167 92 275.167 92H274.801C266.752 91.6951 260.289 84.927 260.289 76.8785V56.2694C260.289 55.4767 260.899 54.806 261.692 54.806H266.813C267.606 54.806 268.277 55.4767 268.277 56.2694V77.1224C268.277 80.9028 271.386 84.0124 275.167 84.0124H296.995C300.776 84.0124 303.885 80.9028 303.885 77.1224V56.2694C303.885 55.4767 304.495 54.806 305.288 54.806H310.471C311.263 54.806 311.873 55.4767 311.873 56.2694V76.8785C311.873 85.1709 305.044 92 296.691 92ZM363.053 74.2566C367.992 73.2201 367.504 62.7936 362.444 62.7936H335.493V74.2566H363.053ZM327.506 56.2694C327.506 55.4767 328.115 54.806 328.908 54.806H334.03C334.152 54.806 334.274 54.806 334.335 54.867L365.919 54.9889C366.041 54.9889 366.163 54.9889 366.285 55.0499C367.078 55.2328 367.809 55.5377 368.541 55.9645C372.87 58.5254 374.638 64.3789 374.516 69.1958C374.394 72.5494 373.419 76.0249 371.285 78.7077C370.736 79.3175 370.126 79.9272 369.456 80.476L375.309 89.8049C375.614 90.2927 375.614 90.8415 375.37 91.2683C375.126 91.7561 374.638 92 374.09 92H368.053C367.565 92 367.078 91.8171 366.834 91.3293L361.163 82.3052H335.493V90.5976C335.493 91.3903 334.823 92 334.03 92H328.908C328.115 92 327.506 91.3903 327.506 90.5976V56.2694ZM391.209 56.2694C391.209 55.4767 391.819 54.806 392.611 54.806H434.988C435.781 54.806 436.391 55.4767 436.391 56.2694V61.3912C436.391 62.1838 435.781 62.7936 434.988 62.7936H399.197V69.4397H430.964C431.757 69.4397 432.427 70.0494 432.427 70.8421V75.9639C432.427 76.7566 431.757 77.4273 430.964 77.4273H399.197V84.0124H434.988C435.781 84.0124 436.391 84.6831 436.391 85.4758V90.5976C436.391 91.3903 435.781 92 434.988 92H392.611C391.819 92 391.209 91.3903 391.209 90.5976V56.2694Z" fill="white"/>
<defs>
<linearGradient id="paint0_linear_693_517" x1="3611.61" y1="679.603" x2="791.177" y2="9012.01" gradientUnits="userSpaceOnUse">
<stop stop-color="#114A8B"/>
<stop offset="1" stop-color="#0669BC"/>
</linearGradient>
<linearGradient id="paint1_linear_693_517" x1="5101.15" y1="4797.17" x2="4491.44" y2="5003.32" gradientUnits="userSpaceOnUse">
<stop stop-opacity="0.3"/>
<stop offset="0.071" stop-opacity="0.2"/>
<stop offset="0.321" stop-opacity="0.1"/>
<stop offset="0.623" stop-opacity="0.05"/>
<stop offset="1" stop-opacity="0"/>
</linearGradient>
<linearGradient id="paint2_linear_693_517" x1="2438.58" y1="421.832" x2="5516.91" y2="8623.14" gradientUnits="userSpaceOnUse">
<stop stop-color="#3CCBF4"/>
<stop offset="1" stop-color="#2892DF"/>
</linearGradient>
<clipPath id="clip0_693_517">
<rect width="97.33" height="92" fill="white"/>
</clipPath>
</defs>
</svg>
