<svg width="481" height="92" viewBox="0 0 481 92" fill="none" xmlns="http://www.w3.org/2000/svg">
<g clip-path="url(#clip0_693_519)">
<path d="M85.4146 37.6451C86.4426 34.5477 86.7979 31.2665 86.4568 28.0208C86.1157 24.7751 85.086 21.6395 83.4366 18.8235C80.9909 14.566 77.2562 11.1953 72.7712 9.19737C68.2861 7.19943 63.2824 6.67748 58.4816 7.70679C55.7548 4.67335 52.278 2.41067 48.4002 1.14592C44.5224 -0.118835 40.3801 -0.341144 36.3892 0.501313C32.3984 1.34377 28.6993 3.22134 25.6636 5.94551C22.6278 8.66968 20.3622 12.1446 19.0941 16.0213C15.8956 16.677 12.874 18.0079 10.2311 19.925C7.58816 21.8421 5.38487 24.3012 3.76844 27.138C1.29575 31.3883 0.238998 36.315 0.751001 41.2055C1.263 46.0961 3.31722 50.6971 6.61661 54.3431C5.58341 57.4393 5.22335 60.7205 5.5605 63.967C5.89765 67.2136 6.92425 70.3508 8.57161 73.1686C11.0206 77.4276 14.7587 80.799 19.2471 82.7969C23.7354 84.7948 28.7422 85.3159 33.5458 84.2853C35.7124 86.7264 38.375 88.6771 41.3556 90.0071C44.3363 91.3371 47.5664 92.0158 50.8303 91.9979C55.7511 92.0024 60.546 90.4431 64.5229 87.5452C68.4998 84.6472 71.4531 80.5605 72.9563 75.8749C76.1536 75.2175 79.174 73.8859 81.8161 71.969C84.4581 70.0521 86.6611 67.5938 88.2781 64.7583C90.7214 60.5145 91.7602 55.6068 91.2459 50.7371C90.7316 45.8673 88.6905 41.2849 85.4146 37.6451ZM50.8303 85.9796C46.8013 85.9863 42.8985 84.575 39.8056 81.9929L40.3461 81.6824L58.6656 71.1101C59.1208 70.8425 59.4986 70.4611 59.762 70.0035C60.0254 69.5459 60.1654 69.0276 60.1683 68.4996V42.6745L67.9116 47.1518C67.9499 47.1712 67.983 47.1993 68.0083 47.234C68.0337 47.2686 68.0504 47.3088 68.0573 47.3511V68.7526C68.0471 73.3184 66.2289 77.6943 63.0004 80.9228C59.7719 84.1513 55.396 85.9695 50.8303 85.9796ZM13.8003 70.1633C11.7782 66.6735 11.052 62.5822 11.7494 58.6096L12.2938 58.9355L30.6286 69.5116C31.082 69.7775 31.598 69.9176 32.1236 69.9176C32.6492 69.9176 33.1652 69.7775 33.6186 69.5116L56.0168 56.5971V65.5364C56.0152 65.5831 56.0029 65.6287 55.981 65.6699C55.9591 65.7111 55.9281 65.7467 55.8903 65.7741L37.3369 76.4729C33.3779 78.7522 28.6764 79.3679 24.2639 78.185C19.8514 77.0021 16.0884 74.1172 13.8003 70.1633ZM8.97027 30.266C11.0057 26.7531 14.2185 24.0739 18.0399 22.7028V44.4646C18.0333 44.9901 18.1678 45.5078 18.4294 45.9636C18.691 46.4194 19.0701 46.7966 19.5273 47.056L41.8181 59.9168L34.0748 64.3941C34.0328 64.4163 33.9861 64.4278 33.9387 64.4278C33.8913 64.4278 33.8445 64.4163 33.8026 64.3941L15.2876 53.7145C11.3344 51.4247 8.44988 47.6616 7.2658 43.2493C6.08171 38.837 6.69462 34.1352 8.97027 30.174V30.266ZM72.5921 45.0435L50.2323 32.06L57.9564 27.598C57.9984 27.5758 58.0451 27.5642 58.0925 27.5642C58.14 27.5642 58.1867 27.5758 58.2286 27.598L76.7436 38.2968C79.5762 39.9295 81.8857 42.3346 83.4022 45.231C84.9188 48.1274 85.5798 51.3956 85.3081 54.6538C85.0363 57.9119 83.843 61.0254 81.8676 63.6306C79.8922 66.2358 77.2162 68.225 74.1523 69.3659V47.6003C74.1362 47.0754 73.984 46.5637 73.7104 46.1155C73.4369 45.6672 73.0515 45.2978 72.5921 45.0435ZM80.2971 33.4553L79.7566 33.1295L61.4563 22.4651C61 22.1976 60.4806 22.0566 59.9517 22.0566C59.4228 22.0566 58.9034 22.1976 58.4471 22.4651L36.0681 35.3796V26.4365C36.0635 26.3914 36.071 26.346 36.0898 26.3049C36.1087 26.2637 36.1383 26.2284 36.1754 26.2026L54.6904 15.5191C57.5284 13.8858 60.7727 13.094 64.044 13.2363C67.3154 13.3785 70.4787 14.4489 73.1642 16.3223C75.8498 18.1958 77.9466 20.7949 79.2097 23.8159C80.4728 26.8369 80.85 30.155 80.2971 33.3825V33.4553ZM31.8438 49.3061L24.1004 44.8441C24.0615 44.8208 24.0282 44.789 24.003 44.7513C23.9778 44.7135 23.9614 44.6706 23.9548 44.6256V23.2855C23.9612 20.0122 24.8988 16.8083 26.6581 14.0479C28.4174 11.2876 30.9258 9.08486 33.8903 7.69689C36.8547 6.30892 40.1529 5.79305 43.3996 6.20954C46.6463 6.62603 49.7075 7.95767 52.2256 10.049L51.6813 10.3556L33.3656 20.928C32.9097 21.1951 32.5312 21.5763 32.267 22.0339C32.0029 22.4916 31.8624 23.0101 31.8591 23.5385L31.8438 49.3061ZM36.0489 40.2403L46.0233 34.4903L56.0168 40.2403V51.7365L46.0616 57.4865L36.0681 51.7365L36.0489 40.2403Z" fill="#F24E1E"/>
</g>
<path d="M181.706 72.0124C185.304 71.0978 186.828 64.5736 186.828 61.464C186.828 59.6348 186.34 57.5007 185.73 55.7934C185.06 53.9032 183.596 50.8545 181.218 50.8545C171.95 50.8545 162.682 50.8545 153.414 50.8545C149.817 51.7691 148.292 58.2933 148.292 61.403C148.292 63.2322 148.719 65.3663 149.329 67.0126C150 68.9637 151.463 72.0124 153.902 72.0124C163.17 72.0124 172.438 72.0124 181.706 72.0124ZM141.951 70.3052C140.427 66.4638 140 62.1347 140.488 58.1104C140.915 55.0617 141.829 52.074 143.476 49.4521C145.732 45.7937 149.39 42.745 153.902 42.806C163.719 42.867 173.597 42.9889 183.413 43.1109C183.535 43.1109 183.657 43.1109 183.779 43.1718C184.633 43.3548 185.425 43.7206 186.218 44.1474C189.511 45.9157 191.828 49.1473 193.169 52.5618C194.632 56.3422 195.12 60.7323 194.572 64.7566C194.206 67.8052 193.23 70.793 191.584 73.4148C189.328 77.0733 185.669 80.061 181.218 80.061C171.341 80 161.524 79.8171 151.646 79.7561C151.524 79.7561 151.463 79.7561 151.341 79.6951C150.487 79.4512 149.634 79.1464 148.841 78.7196C145.549 76.9513 143.293 73.7197 141.951 70.3052ZM246.157 62.2566C251.157 61.2201 250.669 50.7936 245.608 50.7936H218.658V62.2566H246.157ZM210.67 44.2694C210.67 43.4767 211.28 42.806 212.072 42.806H217.194C217.316 42.806 217.438 42.806 217.499 42.867L249.083 42.9889C249.205 42.9889 249.327 42.9889 249.449 43.0499C250.181 43.2328 250.852 43.4767 251.522 43.8426C253.839 45.123 255.486 47.44 256.461 49.879C257.498 52.6228 257.864 55.6715 257.559 58.5982C257.315 61.1591 256.522 63.659 255.059 65.7931C253.352 68.354 250.73 70.3052 247.62 70.3052H218.658V78.5976C218.658 79.3903 217.987 80 217.194 80H212.072C211.28 80 210.67 79.3903 210.67 78.5976V44.2694ZM273.48 44.2694C273.48 43.4767 274.09 42.806 274.883 42.806H317.259C318.052 42.806 318.662 43.4767 318.662 44.2694V49.3912C318.662 50.1838 318.052 50.7936 317.259 50.7936H281.468V57.4397H313.235C314.028 57.4397 314.698 58.0494 314.698 58.8421V63.9639C314.698 64.7566 314.028 65.4273 313.235 65.4273H281.468V72.0124H317.259C318.052 72.0124 318.662 72.6831 318.662 73.4758V78.5976C318.662 79.3903 318.052 80 317.259 80H274.883C274.09 80 273.48 79.3903 273.48 78.5976V44.2694ZM342.253 52.9886V77.9269C342.253 78.7196 341.583 79.3903 340.79 79.3903H335.668C334.875 79.3903 334.266 78.7196 334.266 77.9269V44.2694C334.266 43.4767 334.875 42.806 335.668 42.806H342.131C342.436 42.806 342.741 42.928 343.046 43.1718L373.289 69.1467V44.2694C373.289 43.4767 373.96 42.806 374.752 42.806H379.874C380.667 42.806 381.277 43.4767 381.277 44.2694V77.9269C381.277 78.7196 380.667 79.3903 379.874 79.3903H373.411C373.045 79.3903 372.74 79.2683 372.496 79.0244L342.253 52.9886ZM433.481 65.0614L423.909 49.3302L414.336 65.0614H433.481ZM450.676 77.8659C450.92 78.2927 450.92 78.8415 450.676 79.2683C450.432 79.7561 449.944 80 449.396 80H443.42C442.871 80 442.445 79.7561 442.201 79.3293L438.359 73.049H409.458L405.616 79.3293C405.373 79.7561 404.885 80 404.397 80H398.361C397.873 80 397.385 79.7561 397.141 79.2683C396.897 78.8415 396.897 78.2927 397.141 77.8659L418.116 43.4767C418.36 43.0499 418.787 42.806 419.336 42.806H428.482C428.969 42.806 429.457 43.0499 429.701 43.4767L450.676 77.8659ZM466.555 44.2694C466.555 43.4767 467.165 42.806 467.957 42.806H473.079C473.872 42.806 474.543 43.4767 474.543 44.2694V78.5976C474.543 79.3903 473.872 80 473.079 80H467.957C467.165 80 466.555 79.3903 466.555 78.5976V44.2694Z" fill="white"/>
<defs>
<clipPath id="clip0_693_519">
<rect width="92" height="92" fill="white"/>
</clipPath>
</defs>
</svg>
