<svg width="677" height="92" viewBox="0 0 677 92" fill="none" xmlns="http://www.w3.org/2000/svg">
<g clip-path="url(#clip0_693_518)">
<path d="M43.7237 43.7237H0V0H43.7237V43.7237Z" fill="#F1511B"/>
<path d="M92.0007 43.7237H48.2773V0H92.0007V43.7237Z" fill="#80CC28"/>
<path d="M43.7226 92.0006H0V48.2769H43.7226V92.0006Z" fill="#00ADEF"/>
<path d="M92.0007 92.0006H48.2773V48.2769H92.0007V92.0006Z" fill="#FBBC09"/>
</g>
<path d="M135 44.2694C135 43.4767 135.61 42.806 136.402 42.806H142.683C143.11 42.806 143.475 42.9889 143.78 43.2938L162.682 65.4273L181.584 43.2938C181.889 42.9889 182.255 42.806 182.681 42.806H188.962C189.754 42.806 190.425 43.4767 190.425 44.2694V78.5976C190.425 79.3903 189.754 80 188.962 80H183.84C183.047 80 182.377 79.3903 182.377 78.5976V54.6959L167.133 72.5002C166.828 72.8661 166.462 73.049 166.036 73.049H159.329C158.902 73.049 158.536 72.8661 158.231 72.5002L142.988 54.6959V78.5976C142.988 79.3903 142.317 80 141.524 80H136.402C135.61 80 135 79.3903 135 78.5976V44.2694ZM205.968 44.2694C205.968 43.4767 206.577 42.806 207.37 42.806H212.492C213.285 42.806 213.955 43.4767 213.955 44.2694V78.5976C213.955 79.3903 213.285 80 212.492 80H207.37C206.577 80 205.968 79.3903 205.968 78.5976V44.2694ZM231.43 70.2442C229.905 66.4029 229.478 62.0127 230.027 57.9275C230.454 54.9398 231.369 52.013 232.954 49.4521C235.21 45.7937 238.868 42.806 243.38 42.806H275.392C276.184 42.806 276.794 43.4767 276.794 44.2694V49.3912C276.794 50.1838 276.184 50.7936 275.392 50.7936L242.893 50.8545C239.295 51.7691 237.771 58.2933 237.771 61.403C237.771 63.2322 238.198 65.3663 238.807 67.0126C239.478 68.9637 240.941 72.0124 243.38 72.0124H252.709H275.392C276.184 72.0124 276.794 72.6831 276.794 73.4758V78.5976C276.794 78.9634 276.672 79.3293 276.367 79.5732C276.123 79.8781 275.757 80 275.392 80L241.185 79.7561C241.063 79.7561 240.941 79.7561 240.819 79.6951C239.966 79.5122 239.173 79.1464 238.381 78.7805C235.027 77.0123 232.771 73.7197 231.43 70.2442ZM327.955 62.2566C332.894 61.2201 332.406 50.7936 327.346 50.7936H300.395V62.2566H327.955ZM292.408 44.2694C292.408 43.4767 293.017 42.806 293.81 42.806H298.932C299.054 42.806 299.176 42.806 299.237 42.867L330.821 42.9889C330.943 42.9889 331.065 42.9889 331.187 43.0499C331.98 43.2328 332.711 43.5377 333.443 43.9645C337.772 46.5254 339.54 52.3789 339.418 57.1958C339.296 60.5494 338.321 64.0249 336.187 66.7077C335.638 67.3175 335.028 67.9272 334.358 68.476L340.211 77.8049C340.516 78.2927 340.516 78.8415 340.272 79.2683C340.028 79.7561 339.54 80 338.992 80H332.955C332.467 80 331.98 79.8171 331.736 79.3293L326.065 70.3052H300.395V78.5976C300.395 79.3903 299.724 80 298.932 80H293.81C293.017 80 292.408 79.3903 292.408 78.5976V44.2694ZM397.817 72.0124C401.414 71.0978 402.939 64.5736 402.939 61.464C402.939 59.6348 402.451 57.5007 401.841 55.7934C401.17 53.9032 399.707 50.8545 397.329 50.8545C388.061 50.8545 378.793 50.8545 369.525 50.8545C365.928 51.7691 364.403 58.2933 364.403 61.403C364.403 63.2322 364.83 65.3663 365.44 67.0126C366.111 68.9637 367.574 72.0124 370.013 72.0124C379.281 72.0124 388.549 72.0124 397.817 72.0124ZM358.062 70.3052C356.538 66.4638 356.111 62.1347 356.599 58.1104C357.025 55.0617 357.94 52.074 359.586 49.4521C361.842 45.7937 365.501 42.745 370.013 42.806C379.83 42.867 389.707 42.9889 399.524 43.1109C399.646 43.1109 399.768 43.1109 399.89 43.1718C400.744 43.3548 401.536 43.7206 402.329 44.1474C405.622 45.9157 407.939 49.1473 409.28 52.5618C410.743 56.3422 411.231 60.7323 410.682 64.7566C410.317 67.8052 409.341 70.793 407.695 73.4148C405.439 77.0733 401.78 80.061 397.329 80.061C387.451 80 377.635 79.8171 367.757 79.7561C367.635 79.7561 367.574 79.7561 367.452 79.6951C366.598 79.4512 365.745 79.1464 364.952 78.7196C361.659 76.9513 359.403 73.7197 358.062 70.3052ZM463.487 72.0124C466.536 72.0124 466.536 65.4273 463.487 65.4273L433.732 65.2443C433.61 65.2443 433.488 65.2443 433.366 65.1834C428.854 63.9029 426.781 58.4153 426.781 54.0862C426.781 49.3912 429.464 42.806 435.073 42.806H471.17C471.962 42.806 472.633 43.4767 472.633 44.2694V49.3912C472.633 50.1838 471.962 50.7936 471.17 50.7936H437.085C434.037 50.7936 434.037 57.4397 437.085 57.4397H465.499C475.133 57.4397 476.779 76.0977 467.816 79.5732C467.085 79.8781 466.292 80 465.499 80H429.342C428.549 80 427.939 79.3903 427.939 78.5976V73.4758C427.939 72.6831 428.549 72.0124 429.342 72.0124H463.487ZM534.096 72.0124C537.693 71.0978 539.217 64.5736 539.217 61.464C539.217 59.6348 538.73 57.5007 538.12 55.7934C537.449 53.9032 535.986 50.8545 533.608 50.8545C524.34 50.8545 515.072 50.8545 505.804 50.8545C502.206 51.7691 500.682 58.2933 500.682 61.403C500.682 63.2322 501.109 65.3663 501.719 67.0126C502.389 68.9637 503.853 72.0124 506.292 72.0124C515.56 72.0124 524.828 72.0124 534.096 72.0124ZM494.341 70.3052C492.816 66.4638 492.39 62.1347 492.877 58.1104C493.304 55.0617 494.219 52.074 495.865 49.4521C498.121 45.7937 501.78 42.745 506.292 42.806C516.108 42.867 525.986 42.9889 535.803 43.1109C535.925 43.1109 536.047 43.1109 536.169 43.1718C537.022 43.3548 537.815 43.7206 538.608 44.1474C541.9 45.9157 544.217 49.1473 545.559 52.5618C547.022 56.3422 547.51 60.7323 546.961 64.7566C546.595 67.8052 545.62 70.793 543.973 73.4148C541.717 77.0733 538.059 80.061 533.608 80.061C523.73 80 513.913 79.8171 504.036 79.7561C503.914 79.7561 503.853 79.7561 503.731 79.6951C502.877 79.4512 502.023 79.1464 501.231 78.7196C497.938 76.9513 495.682 73.7197 494.341 70.3052ZM563.06 44.2694C563.06 43.4767 563.669 42.806 564.462 42.806H606.839C607.631 42.806 608.241 43.4767 608.241 44.2694V49.3912C608.241 50.1838 607.631 50.7936 606.839 50.7936H571.047V57.4397H602.814C603.607 57.4397 604.278 58.0494 604.278 58.8421V63.9639C604.278 64.7566 603.607 65.4273 602.814 65.4273H571.047V78.5976C571.047 79.3903 570.376 80 569.584 80H564.462C563.669 80 563.06 79.3903 563.06 78.5976V44.2694ZM643.357 50.7936H625.248C624.455 50.7936 623.845 50.1838 623.845 49.3912V44.2694C623.845 43.4767 624.455 42.806 625.248 42.806H669.454C670.246 42.806 670.856 43.4767 670.856 44.2694V49.3912C670.856 50.1838 670.246 50.7936 669.454 50.7936H651.344V78.5976C651.344 79.3903 650.674 80 649.881 80H644.759C643.967 80 643.357 79.3903 643.357 78.5976V50.7936Z" fill="white"/>
<defs>
<clipPath id="clip0_693_518">
<rect width="92" height="92" fill="white"/>
</clipPath>
</defs>
</svg>
