<svg width="1003" height="567" viewBox="0 0 1003 567" fill="none" xmlns="http://www.w3.org/2000/svg">
<g clip-path="url(#clip0_660_353)">
<path opacity="0.12" fill-rule="evenodd" clip-rule="evenodd" d="M920.87 139C918.733 139 917 140.733 917 142.87C917 145.007 918.733 146.74 920.87 146.74C923.007 146.74 924.74 145.007 924.74 142.87C924.74 140.733 923.007 139 920.87 139ZM936.349 139C934.212 139 932.479 140.733 932.479 142.87C932.479 145.007 934.212 146.74 936.349 146.74C938.486 146.74 940.219 145.007 940.219 142.87C940.219 140.733 938.486 139 936.349 139ZM947.958 142.87C947.958 140.733 949.691 139 951.828 139C953.965 139 955.698 140.733 955.698 142.87C955.698 145.007 953.965 146.74 951.828 146.74C949.691 146.74 947.958 145.007 947.958 142.87ZM967.307 139C965.17 139 963.437 140.733 963.437 142.87C963.437 145.007 965.17 146.74 967.307 146.74C969.444 146.74 971.177 145.007 971.177 142.87C971.177 140.733 969.444 139 967.307 139ZM978.916 142.87C978.916 140.733 980.649 139 982.786 139C984.923 139 986.656 140.733 986.656 142.87C986.656 145.007 984.923 146.74 982.786 146.74C980.649 146.74 978.916 145.007 978.916 142.87ZM998.265 139C996.128 139 994.396 140.733 994.396 142.87C994.396 145.007 996.128 146.74 998.265 146.74C1000.4 146.74 1002.14 145.007 1002.14 142.87C1002.14 140.733 1000.4 139 998.265 139ZM917 158.349C917 156.212 918.733 154.479 920.87 154.479C923.007 154.479 924.74 156.212 924.74 158.349C924.74 160.486 923.007 162.219 920.87 162.219C918.733 162.219 917 160.486 917 158.349ZM936.349 154.479C934.212 154.479 932.479 156.212 932.479 158.349C932.479 160.486 934.212 162.219 936.349 162.219C938.486 162.219 940.219 160.486 940.219 158.349C940.219 156.212 938.486 154.479 936.349 154.479ZM947.958 158.349C947.958 156.212 949.691 154.479 951.828 154.479C953.965 154.479 955.698 156.212 955.698 158.349C955.698 160.486 953.965 162.219 951.828 162.219C949.691 162.219 947.958 160.486 947.958 158.349ZM967.307 154.479C965.17 154.479 963.437 156.212 963.437 158.349C963.437 160.486 965.17 162.219 967.307 162.219C969.444 162.219 971.177 160.486 971.177 158.349C971.177 156.212 969.444 154.479 967.307 154.479ZM978.916 158.349C978.916 156.212 980.649 154.479 982.786 154.479C984.923 154.479 986.656 156.212 986.656 158.349C986.656 160.486 984.923 162.219 982.786 162.219C980.649 162.219 978.916 160.486 978.916 158.349ZM998.265 154.479C996.128 154.479 994.396 156.212 994.396 158.349C994.396 160.486 996.128 162.219 998.265 162.219C1000.4 162.219 1002.14 160.486 1002.14 158.349C1002.14 156.212 1000.4 154.479 998.265 154.479ZM917 173.828C917 171.691 918.733 169.958 920.87 169.958C923.007 169.958 924.74 171.691 924.74 173.828C924.74 175.965 923.007 177.698 920.87 177.698C918.733 177.698 917 175.965 917 173.828ZM936.349 169.958C934.212 169.958 932.479 171.691 932.479 173.828C932.479 175.965 934.212 177.698 936.349 177.698C938.486 177.698 940.219 175.965 940.219 173.828C940.219 171.691 938.486 169.958 936.349 169.958ZM947.958 173.828C947.958 171.691 949.691 169.958 951.828 169.958C953.965 169.958 955.698 171.691 955.698 173.828C955.698 175.965 953.965 177.698 951.828 177.698C949.691 177.698 947.958 175.965 947.958 173.828ZM967.307 169.958C965.17 169.958 963.437 171.691 963.437 173.828C963.437 175.965 965.17 177.698 967.307 177.698C969.444 177.698 971.177 175.965 971.177 173.828C971.177 171.691 969.444 169.958 967.307 169.958ZM978.916 173.828C978.916 171.691 980.649 169.958 982.786 169.958C984.923 169.958 986.656 171.691 986.656 173.828C986.656 175.965 984.923 177.698 982.786 177.698C980.649 177.698 978.916 175.965 978.916 173.828ZM998.265 169.958C996.128 169.958 994.396 171.691 994.396 173.828C994.396 175.965 996.128 177.698 998.265 177.698C1000.4 177.698 1002.14 175.965 1002.14 173.828C1002.14 171.691 1000.4 169.958 998.265 169.958ZM917 189.307C917 187.17 918.733 185.437 920.87 185.437C923.007 185.437 924.74 187.17 924.74 189.307C924.74 191.444 923.007 193.177 920.87 193.177C918.733 193.177 917 191.444 917 189.307ZM936.349 185.437C934.212 185.437 932.479 187.17 932.479 189.307C932.479 191.444 934.212 193.177 936.349 193.177C938.486 193.177 940.219 191.444 940.219 189.307C940.219 187.17 938.486 185.437 936.349 185.437ZM947.958 189.307C947.958 187.17 949.691 185.437 951.828 185.437C953.965 185.437 955.698 187.17 955.698 189.307C955.698 191.444 953.965 193.177 951.828 193.177C949.691 193.177 947.958 191.444 947.958 189.307ZM967.307 185.437C965.17 185.437 963.437 187.17 963.437 189.307C963.437 191.444 965.17 193.177 967.307 193.177C969.444 193.177 971.177 191.444 971.177 189.307C971.177 187.17 969.444 185.437 967.307 185.437ZM978.916 189.307C978.916 187.17 980.649 185.437 982.786 185.437C984.923 185.437 986.656 187.17 986.656 189.307C986.656 191.444 984.923 193.177 982.786 193.177C980.649 193.177 978.916 191.444 978.916 189.307ZM998.265 185.437C996.128 185.437 994.396 187.17 994.396 189.307C994.396 191.444 996.128 193.177 998.265 193.177C1000.4 193.177 1002.14 191.444 1002.14 189.307C1002.14 187.17 1000.4 185.437 998.265 185.437ZM917 204.786C917 202.649 918.733 200.916 920.87 200.916C923.007 200.916 924.74 202.649 924.74 204.786C924.74 206.923 923.007 208.656 920.87 208.656C918.733 208.656 917 206.923 917 204.786ZM936.349 200.916C934.212 200.916 932.479 202.649 932.479 204.786C932.479 206.923 934.212 208.656 936.349 208.656C938.486 208.656 940.219 206.923 940.219 204.786C940.219 202.649 938.486 200.916 936.349 200.916ZM947.958 204.786C947.958 202.649 949.691 200.916 951.828 200.916C953.965 200.916 955.698 202.649 955.698 204.786C955.698 206.923 953.965 208.656 951.828 208.656C949.691 208.656 947.958 206.923 947.958 204.786ZM967.307 200.916C965.17 200.916 963.437 202.649 963.437 204.786C963.437 206.923 965.17 208.656 967.307 208.656C969.444 208.656 971.177 206.923 971.177 204.786C971.177 202.649 969.444 200.916 967.307 200.916ZM978.916 204.786C978.916 202.649 980.649 200.916 982.786 200.916C984.923 200.916 986.656 202.649 986.656 204.786C986.656 206.923 984.923 208.656 982.786 208.656C980.649 208.656 978.916 206.923 978.916 204.786ZM998.265 200.916C996.128 200.916 994.396 202.649 994.396 204.786C994.396 206.923 996.128 208.656 998.265 208.656C1000.4 208.656 1002.14 206.923 1002.14 204.786C1002.14 202.649 1000.4 200.916 998.265 200.916ZM917 220.265C917 218.128 918.733 216.396 920.87 216.396C923.007 216.396 924.74 218.128 924.74 220.265C924.74 222.403 923.007 224.135 920.87 224.135C918.733 224.135 917 222.403 917 220.265ZM936.349 216.396C934.212 216.396 932.479 218.128 932.479 220.265C932.479 222.403 934.212 224.135 936.349 224.135C938.486 224.135 940.219 222.403 940.219 220.265C940.219 218.128 938.486 216.396 936.349 216.396ZM947.958 220.265C947.958 218.128 949.691 216.396 951.828 216.396C953.965 216.396 955.698 218.128 955.698 220.265C955.698 222.403 953.965 224.135 951.828 224.135C949.691 224.135 947.958 222.403 947.958 220.265ZM967.307 216.396C965.17 216.396 963.437 218.128 963.437 220.265C963.437 222.403 965.17 224.135 967.307 224.135C969.444 224.135 971.177 222.403 971.177 220.265C971.177 218.128 969.444 216.396 967.307 216.396ZM978.916 220.265C978.916 218.128 980.649 216.396 982.786 216.396C984.923 216.396 986.656 218.128 986.656 220.265C986.656 222.403 984.923 224.135 982.786 224.135C980.649 224.135 978.916 222.403 978.916 220.265ZM998.265 216.396C996.128 216.396 994.396 218.128 994.396 220.265C994.396 222.403 996.128 224.135 998.265 224.135C1000.4 224.135 1002.14 222.403 1002.14 220.265C1002.14 218.128 1000.4 216.396 998.265 216.396Z" fill="white"/>
<g opacity="0.16">
<path d="M325.626 252.824C324.233 247.398 318.426 244.062 312.659 245.377C306.893 246.689 303.348 252.149 304.741 257.575C308.78 273.281 300.218 299.062 282.932 323.256C264.339 349.278 239.887 367.85 217.519 372.937C211.753 374.249 208.207 379.71 209.602 385.135C210.791 389.762 215.19 392.868 220.035 392.868C220.872 392.868 221.721 392.774 222.569 392.581C250.43 386.245 278.932 365.085 300.764 334.53C321.886 304.97 331.179 274.426 325.626 252.824Z" fill="#545454" fill-opacity="0.48"/>
<path d="M35.4942 71.0852C7.48428 76.8194 -21.5247 97.3578 -44.0972 127.433C-65.9357 156.529 -75.9726 186.864 -70.948 208.58C-69.853 213.31 -65.4046 216.539 -60.46 216.539C-59.7034 216.539 -58.9344 216.464 -58.1665 216.306C-52.3683 215.119 -48.6911 209.735 -49.9529 204.282C-53.6064 188.494 -44.4186 162.904 -26.5459 139.089C-7.3224 113.477 17.5775 95.4379 40.0633 90.8345C45.8603 89.6476 49.5375 84.2645 48.2768 78.8114C47.0139 73.3572 41.3014 69.894 35.4942 71.0852Z" fill="#545454" fill-opacity="0.48"/>
<path d="M123.839 60.9386C110.846 55.2532 84.5162 58.8914 76.7593 60.1409C70.9115 61.0828 66.9863 66.3026 67.9854 71.8034C68.9856 77.3021 74.5255 80.9955 80.3824 80.0631C93.183 78.0096 110.059 77.2013 114.78 79.2644C116.246 79.9061 117.786 80.2095 119.302 80.2095C123.352 80.2095 127.231 78.0435 129.05 74.3629C131.552 69.3012 129.219 63.2912 123.839 60.9386Z" fill="#545454" fill-opacity="0.48"/>
<mask id="path-5-outside-1_660_353" maskUnits="userSpaceOnUse" x="-136" y="-13" width="515" height="689" fill="black">
<rect fill="white" x="-136" y="-13" width="515" height="689"/>
<path d="M38.6106 487.59H204.365V511.123H38.6106V487.59ZM198.138 556.019H44.8361C41.4668 548.327 39.3717 540.022 38.7933 531.335H204.183C203.604 540.022 201.509 548.327 198.138 556.019ZM157.564 596.584C157.283 596.684 157.002 596.782 156.729 596.903C152.605 598.742 148.377 600.242 144.064 601.405C143.978 601.428 143.891 601.452 143.806 601.474C142.575 601.802 141.336 602.092 140.094 602.363C139.791 602.428 139.49 602.497 139.188 602.561C138.146 602.776 137.095 602.963 136.045 603.14C135.601 603.214 135.16 603.296 134.713 603.365C133.763 603.508 132.807 603.625 131.851 603.737C131.335 603.799 130.823 603.871 130.305 603.923C129.328 604.022 128.345 604.085 127.361 604.151C126.876 604.183 126.396 604.232 125.91 604.256C124.442 604.328 122.968 604.368 121.488 604.368C120.007 604.368 118.534 604.328 117.067 604.256C116.579 604.232 116.1 604.184 115.616 604.151C114.632 604.085 113.648 604.022 112.67 603.923C112.151 603.871 111.64 603.799 111.125 603.737C110.169 603.625 109.213 603.508 108.262 603.365C107.816 603.296 107.375 603.214 106.93 603.14C105.879 602.963 104.83 602.776 103.787 602.561C103.484 602.497 103.183 602.428 102.882 602.363C101.639 602.092 100.399 601.802 99.1702 601.474C99.0833 601.452 98.9965 601.428 98.9108 601.405C94.5977 600.242 90.3703 598.742 86.2477 596.903C85.9748 596.782 85.6941 596.685 85.4155 596.586C74.7314 591.707 65.3249 584.73 57.798 576.23H185.177C177.65 584.728 168.244 591.706 157.564 596.584ZM150.88 620.594C147.9 633.276 135.854 642.79 121.488 642.79C107.122 642.79 95.0758 633.276 92.0944 620.594C92.3177 620.657 92.5432 620.708 92.7665 620.769C94.1827 621.151 95.608 621.508 97.048 621.835C97.9557 622.042 98.8623 622.246 99.7757 622.428C100.354 622.545 100.936 622.65 101.519 622.757C102.585 622.954 103.654 623.132 104.727 623.298C105.16 623.362 105.591 623.436 106.026 623.496C107.552 623.71 109.085 623.897 110.624 624.048C110.894 624.073 111.166 624.091 111.436 624.116C112.765 624.237 114.099 624.33 115.436 624.403C115.855 624.425 116.272 624.448 116.691 624.466C118.285 624.534 119.882 624.58 121.488 624.58C123.092 624.58 124.69 624.534 126.285 624.466C126.704 624.448 127.121 624.425 127.539 624.403C128.877 624.33 130.21 624.237 131.539 624.116C131.809 624.091 132.081 624.073 132.35 624.048C133.891 623.897 135.423 623.71 136.951 623.496C137.384 623.436 137.815 623.362 138.248 623.298C139.321 623.132 140.39 622.954 141.457 622.757C142.039 622.65 142.62 622.545 143.201 622.428C144.112 622.246 145.02 622.042 145.927 621.835C147.368 621.508 148.793 621.151 150.208 620.769C150.433 620.708 150.658 620.657 150.88 620.594ZM121.488 4.26982e-05C-13.3227 4.26982e-05 -123 103.17 -123 229.981C-123 371.845 -39.7382 406.58 0.276269 423.274C6.61909 425.92 14.3523 429.146 17.1239 431.188V477.485V511.123H-0.12741C-6.06091 511.123 -10.8702 515.647 -10.8702 521.228C-10.8702 526.81 -6.06091 531.335 -0.12741 531.335H17.257C17.7092 539.896 19.3397 548.168 21.9851 556.019H21.9005C15.9681 556.019 11.1577 560.544 11.1577 566.124C11.1577 571.705 15.9681 576.23 21.9005 576.23H31.6149C40.8895 590.979 54.1457 603.247 69.9853 611.74C69.93 612.653 69.9007 613.564 69.9007 614.474C69.9007 641.231 93.0427 663 121.488 663C149.932 663 173.075 641.231 173.075 614.474C173.075 613.564 173.045 612.653 172.989 611.74C188.829 603.247 202.085 590.979 211.361 576.23H221.073C227.006 576.23 231.816 571.705 231.816 566.124C231.816 560.544 227.006 556.019 221.073 556.019H220.99C223.636 548.168 225.267 539.896 225.718 531.335H243.102C249.036 531.335 253.846 526.81 253.846 521.228C253.846 515.647 249.036 511.123 243.102 511.123H225.851V477.485V429.594C225.818 425.794 238.433 420.754 249.562 416.309C270.871 407.797 300.054 396.137 324.047 368.662C352.26 336.354 365.975 290.991 365.975 229.981C365.975 103.17 256.297 4.26982e-05 121.488 4.26982e-05Z"/>
</mask>
<path d="M38.6106 487.59H204.365V511.123H38.6106V487.59ZM198.138 556.019H44.8361C41.4668 548.327 39.3717 540.022 38.7933 531.335H204.183C203.604 540.022 201.509 548.327 198.138 556.019ZM157.564 596.584C157.283 596.684 157.002 596.782 156.729 596.903C152.605 598.742 148.377 600.242 144.064 601.405C143.978 601.428 143.891 601.452 143.806 601.474C142.575 601.802 141.336 602.092 140.094 602.363C139.791 602.428 139.49 602.497 139.188 602.561C138.146 602.776 137.095 602.963 136.045 603.14C135.601 603.214 135.16 603.296 134.713 603.365C133.763 603.508 132.807 603.625 131.851 603.737C131.335 603.799 130.823 603.871 130.305 603.923C129.328 604.022 128.345 604.085 127.361 604.151C126.876 604.183 126.396 604.232 125.91 604.256C124.442 604.328 122.968 604.368 121.488 604.368C120.007 604.368 118.534 604.328 117.067 604.256C116.579 604.232 116.1 604.184 115.616 604.151C114.632 604.085 113.648 604.022 112.67 603.923C112.151 603.871 111.64 603.799 111.125 603.737C110.169 603.625 109.213 603.508 108.262 603.365C107.816 603.296 107.375 603.214 106.93 603.14C105.879 602.963 104.83 602.776 103.787 602.561C103.484 602.497 103.183 602.428 102.882 602.363C101.639 602.092 100.399 601.802 99.1702 601.474C99.0833 601.452 98.9965 601.428 98.9108 601.405C94.5977 600.242 90.3703 598.742 86.2477 596.903C85.9748 596.782 85.6941 596.685 85.4155 596.586C74.7314 591.707 65.3249 584.73 57.798 576.23H185.177C177.65 584.728 168.244 591.706 157.564 596.584ZM150.88 620.594C147.9 633.276 135.854 642.79 121.488 642.79C107.122 642.79 95.0758 633.276 92.0944 620.594C92.3177 620.657 92.5432 620.708 92.7665 620.769C94.1827 621.151 95.608 621.508 97.048 621.835C97.9557 622.042 98.8623 622.246 99.7757 622.428C100.354 622.545 100.936 622.65 101.519 622.757C102.585 622.954 103.654 623.132 104.727 623.298C105.16 623.362 105.591 623.436 106.026 623.496C107.552 623.71 109.085 623.897 110.624 624.048C110.894 624.073 111.166 624.091 111.436 624.116C112.765 624.237 114.099 624.33 115.436 624.403C115.855 624.425 116.272 624.448 116.691 624.466C118.285 624.534 119.882 624.58 121.488 624.58C123.092 624.58 124.69 624.534 126.285 624.466C126.704 624.448 127.121 624.425 127.539 624.403C128.877 624.33 130.21 624.237 131.539 624.116C131.809 624.091 132.081 624.073 132.35 624.048C133.891 623.897 135.423 623.71 136.951 623.496C137.384 623.436 137.815 623.362 138.248 623.298C139.321 623.132 140.39 622.954 141.457 622.757C142.039 622.65 142.62 622.545 143.201 622.428C144.112 622.246 145.02 622.042 145.927 621.835C147.368 621.508 148.793 621.151 150.208 620.769C150.433 620.708 150.658 620.657 150.88 620.594ZM121.488 4.26982e-05C-13.3227 4.26982e-05 -123 103.17 -123 229.981C-123 371.845 -39.7382 406.58 0.276269 423.274C6.61909 425.92 14.3523 429.146 17.1239 431.188V477.485V511.123H-0.12741C-6.06091 511.123 -10.8702 515.647 -10.8702 521.228C-10.8702 526.81 -6.06091 531.335 -0.12741 531.335H17.257C17.7092 539.896 19.3397 548.168 21.9851 556.019H21.9005C15.9681 556.019 11.1577 560.544 11.1577 566.124C11.1577 571.705 15.9681 576.23 21.9005 576.23H31.6149C40.8895 590.979 54.1457 603.247 69.9853 611.74C69.93 612.653 69.9007 613.564 69.9007 614.474C69.9007 641.231 93.0427 663 121.488 663C149.932 663 173.075 641.231 173.075 614.474C173.075 613.564 173.045 612.653 172.989 611.74C188.829 603.247 202.085 590.979 211.361 576.23H221.073C227.006 576.23 231.816 571.705 231.816 566.124C231.816 560.544 227.006 556.019 221.073 556.019H220.99C223.636 548.168 225.267 539.896 225.718 531.335H243.102C249.036 531.335 253.846 526.81 253.846 521.228C253.846 515.647 249.036 511.123 243.102 511.123H225.851V477.485V429.594C225.818 425.794 238.433 420.754 249.562 416.309C270.871 407.797 300.054 396.137 324.047 368.662C352.26 336.354 365.975 290.991 365.975 229.981C365.975 103.17 256.297 4.26982e-05 121.488 4.26982e-05Z" fill="#545454" fill-opacity="0.48"/>
<path d="M38.6106 487.59H204.365V511.123H38.6106V487.59ZM198.138 556.019H44.8361C41.4668 548.327 39.3717 540.022 38.7933 531.335H204.183C203.604 540.022 201.509 548.327 198.138 556.019ZM157.564 596.584C157.283 596.684 157.002 596.782 156.729 596.903C152.605 598.742 148.377 600.242 144.064 601.405C143.978 601.428 143.891 601.452 143.806 601.474C142.575 601.802 141.336 602.092 140.094 602.363C139.791 602.428 139.49 602.497 139.188 602.561C138.146 602.776 137.095 602.963 136.045 603.14C135.601 603.214 135.16 603.296 134.713 603.365C133.763 603.508 132.807 603.625 131.851 603.737C131.335 603.799 130.823 603.871 130.305 603.923C129.328 604.022 128.345 604.085 127.361 604.151C126.876 604.183 126.396 604.232 125.91 604.256C124.442 604.328 122.968 604.368 121.488 604.368C120.007 604.368 118.534 604.328 117.067 604.256C116.579 604.232 116.1 604.184 115.616 604.151C114.632 604.085 113.648 604.022 112.67 603.923C112.151 603.871 111.64 603.799 111.125 603.737C110.169 603.625 109.213 603.508 108.262 603.365C107.816 603.296 107.375 603.214 106.93 603.14C105.879 602.963 104.83 602.776 103.787 602.561C103.484 602.497 103.183 602.428 102.882 602.363C101.639 602.092 100.399 601.802 99.1702 601.474C99.0833 601.452 98.9965 601.428 98.9108 601.405C94.5977 600.242 90.3703 598.742 86.2477 596.903C85.9748 596.782 85.6941 596.685 85.4155 596.586C74.7314 591.707 65.3249 584.73 57.798 576.23H185.177C177.65 584.728 168.244 591.706 157.564 596.584ZM150.88 620.594C147.9 633.276 135.854 642.79 121.488 642.79C107.122 642.79 95.0758 633.276 92.0944 620.594C92.3177 620.657 92.5432 620.708 92.7665 620.769C94.1827 621.151 95.608 621.508 97.048 621.835C97.9557 622.042 98.8623 622.246 99.7757 622.428C100.354 622.545 100.936 622.65 101.519 622.757C102.585 622.954 103.654 623.132 104.727 623.298C105.16 623.362 105.591 623.436 106.026 623.496C107.552 623.71 109.085 623.897 110.624 624.048C110.894 624.073 111.166 624.091 111.436 624.116C112.765 624.237 114.099 624.33 115.436 624.403C115.855 624.425 116.272 624.448 116.691 624.466C118.285 624.534 119.882 624.58 121.488 624.58C123.092 624.58 124.69 624.534 126.285 624.466C126.704 624.448 127.121 624.425 127.539 624.403C128.877 624.33 130.21 624.237 131.539 624.116C131.809 624.091 132.081 624.073 132.35 624.048C133.891 623.897 135.423 623.71 136.951 623.496C137.384 623.436 137.815 623.362 138.248 623.298C139.321 623.132 140.39 622.954 141.457 622.757C142.039 622.65 142.62 622.545 143.201 622.428C144.112 622.246 145.02 622.042 145.927 621.835C147.368 621.508 148.793 621.151 150.208 620.769C150.433 620.708 150.658 620.657 150.88 620.594ZM121.488 4.26982e-05C-13.3227 4.26982e-05 -123 103.17 -123 229.981C-123 371.845 -39.7382 406.58 0.276269 423.274C6.61909 425.92 14.3523 429.146 17.1239 431.188V477.485V511.123H-0.12741C-6.06091 511.123 -10.8702 515.647 -10.8702 521.228C-10.8702 526.81 -6.06091 531.335 -0.12741 531.335H17.257C17.7092 539.896 19.3397 548.168 21.9851 556.019H21.9005C15.9681 556.019 11.1577 560.544 11.1577 566.124C11.1577 571.705 15.9681 576.23 21.9005 576.23H31.6149C40.8895 590.979 54.1457 603.247 69.9853 611.74C69.93 612.653 69.9007 613.564 69.9007 614.474C69.9007 641.231 93.0427 663 121.488 663C149.932 663 173.075 641.231 173.075 614.474C173.075 613.564 173.045 612.653 172.989 611.74C188.829 603.247 202.085 590.979 211.361 576.23H221.073C227.006 576.23 231.816 571.705 231.816 566.124C231.816 560.544 227.006 556.019 221.073 556.019H220.99C223.636 548.168 225.267 539.896 225.718 531.335H243.102C249.036 531.335 253.846 526.81 253.846 521.228C253.846 515.647 249.036 511.123 243.102 511.123H225.851V477.485V429.594C225.818 425.794 238.433 420.754 249.562 416.309C270.871 407.797 300.054 396.137 324.047 368.662C352.26 336.354 365.975 290.991 365.975 229.981C365.975 103.17 256.297 4.26982e-05 121.488 4.26982e-05Z" stroke="white" stroke-opacity="0.49" stroke-width="25.4569" mask="url(#path-5-outside-1_660_353)"/>
</g>
<g opacity="0.16">
<path d="M93.7493 101.496C103.798 101.496 109.526 110.857 109.526 120.257V177.87H96.8051C94.3313 172.149 89.8075 167.411 84.009 164.468C78.2105 161.525 71.4984 160.561 65.0229 161.74C58.5475 162.918 52.7119 166.167 48.5163 170.93C44.3207 175.692 42.0262 181.671 42.0262 187.843C42.0262 194.014 44.3207 199.993 48.5163 204.755C52.7119 209.518 58.5475 212.767 65.0229 213.946C71.4984 215.124 78.2105 214.16 84.009 211.217C89.8075 208.274 94.3313 203.536 96.8051 197.815H109.526V342.718C109.526 350.643 105.944 358.528 98.397 362.131C91.5534 365.484 83.9498 367.254 76.2242 367.29C54.7621 367.29 38.8005 357.132 28.5243 345.112C21.4074 336.817 16.4448 327.09 14.0267 316.697C7.38928 314.865 1.24209 311.738 -4.01004 307.523C-14.1015 299.399 -21.9473 286.368 -21.9473 267.169C-21.9473 257.13 -21.1797 248.381 -19.2467 241.028H40.5914C50.228 241.028 58.2159 247.676 59.5662 256.332C53.4746 258.69 48.4483 262.954 45.3475 268.397C42.2467 273.839 41.2642 280.12 42.5682 286.165C43.8722 292.21 47.3816 297.643 52.4957 301.535C57.6099 305.426 64.0108 307.534 70.603 307.497C77.1951 307.46 83.5687 305.281 88.6328 301.333C93.6969 297.385 97.1367 291.913 98.3634 285.853C99.5901 279.794 98.5275 273.524 95.3574 268.117C92.1873 262.71 87.1069 258.502 80.9857 256.212C80.239 246.667 75.6592 237.74 68.1662 231.224C60.6732 224.707 50.822 221.085 40.5914 221.083H-7.1654C-5.037 219.438 -2.66778 218.086 -0.129798 217.068C-1.59491 212.182 -2.444 207.153 -2.65977 202.083C-3.12881 192.31 -1.56535 182.138 1.53316 173.084C4.60324 164.175 9.4642 155.493 16.2866 149.496C20.5662 145.595 25.9881 142.971 31.8644 141.957C34.6929 130.788 41.899 121.56 51.0951 114.872C62.9063 106.256 78.3847 101.496 93.7351 101.496H93.7493ZM130.846 300.861H154.298C165.041 300.861 175.345 296.869 182.942 289.762C190.538 282.656 194.806 273.017 194.806 262.967V239.1C200.922 236.786 205.986 232.554 209.132 227.129C212.278 221.705 213.309 215.426 212.049 209.368C210.789 203.311 207.316 197.851 202.225 193.927C197.135 190.002 190.743 187.855 184.146 187.855C177.549 187.855 171.158 190.002 166.067 193.927C160.976 197.851 157.503 203.311 156.243 209.368C154.983 215.426 156.014 221.705 159.16 227.129C162.306 232.554 167.371 236.786 173.486 239.1V262.967C173.486 267.728 171.464 272.293 167.866 275.66C164.268 279.026 159.387 280.917 154.298 280.917H130.846V120.257C130.846 110.857 136.574 101.496 146.623 101.496C162.002 101.496 177.466 106.256 189.277 114.872C198.473 121.56 205.679 130.801 208.508 141.957C214.477 142.888 219.793 145.733 224.086 149.496C230.908 155.493 235.769 164.162 238.839 173.084C241.937 182.138 243.501 192.31 243.032 202.083C242.79 207.082 242.009 212.188 240.502 217.068L241.44 217.467C246.699 219.78 250.963 223.41 254.147 228.237C260.187 237.345 262.319 250.455 262.319 267.169C262.319 286.382 254.474 299.425 244.382 307.523C239.126 311.74 232.974 314.867 226.331 316.697C223.917 327.089 218.959 336.815 211.848 345.112C201.572 357.132 185.61 367.29 164.134 367.29C156.409 367.258 148.806 365.493 141.961 362.144C134.428 358.528 130.846 350.643 130.846 342.718V300.861ZM63.3327 187.843C63.3327 186.079 64.0815 184.388 65.4142 183.142C66.747 181.895 68.5546 181.194 70.4394 181.194C72.3242 181.194 74.1318 181.895 75.4646 183.142C76.7973 184.388 77.5461 186.079 77.5461 187.843C77.5461 189.606 76.7973 191.297 75.4646 192.544C74.1318 193.79 72.3242 194.491 70.4394 194.491C68.5546 194.491 66.747 193.79 65.4142 192.544C64.0815 191.297 63.3327 189.606 63.3327 187.843ZM70.4394 274.269C68.5546 274.269 66.747 274.969 65.4142 276.216C64.0815 277.463 63.3327 279.154 63.3327 280.917C63.3327 282.68 64.0815 284.371 65.4142 285.618C66.747 286.865 68.5546 287.565 70.4394 287.565C72.3242 287.565 74.1318 286.865 75.4646 285.618C76.7973 284.371 77.5461 282.68 77.5461 280.917C77.5461 279.154 76.7973 277.463 75.4646 276.216C74.1318 274.969 72.3242 274.269 70.4394 274.269ZM177.039 214.435C177.039 216.198 177.788 217.889 179.121 219.136C180.454 220.383 182.261 221.083 184.146 221.083C186.031 221.083 187.838 220.383 189.171 219.136C190.504 217.889 191.253 216.198 191.253 214.435C191.253 212.672 190.504 210.981 189.171 209.734C187.838 208.487 186.031 207.787 184.146 207.787C182.261 207.787 180.454 208.487 179.121 209.734C177.788 210.981 177.039 212.672 177.039 214.435Z" fill="#F8F8F8" fill-opacity="0.46"/>
</g>
</g>
<defs>
<clipPath id="clip0_660_353">
<rect width="1003" height="567" fill="white"/>
</clipPath>
</defs>
</svg>
